<svg xmlns="http://www.w3.org/2000/svg" width="14" height="14" viewBox="0 0 14 14" fill="none">
  <path fill-rule="evenodd" clip-rule="evenodd" d="M5.79425 11.7317C5.19174 11.7317 4.68104 12.2473 4.96024 12.7813C5.33906 13.5057 6.09771 14.0001 6.97182 14.0001C7.84594 14.0001 8.60459 13.5057 8.9834 12.7813C9.2626 12.2473 8.75191 11.7317 8.14939 11.7317H5.79425Z" fill="#808087"/>
  <circle cx="7.00353" cy="1.63634" r="1.63634" fill="#808087"/>
  <path d="M2.68047 5.31684C2.72971 2.96625 4.64933 1.08643 7.00044 1.08643C9.35155 1.08643 11.2712 2.96625 11.3204 5.31684L11.3351 6.01649C11.354 6.9208 11.6162 7.80331 12.0941 8.57129L12.5629 9.32474C12.9913 10.0133 12.4962 10.9045 11.6852 10.9045H2.31566C1.50472 10.9045 1.0096 10.0133 1.43802 9.32474L1.90683 8.57129C2.38469 7.80331 2.64686 6.9208 2.66581 6.01649L2.68047 5.31684Z" fill="#808087"/>
</svg>