<svg width="21" height="20" viewBox="0 0 21 20" fill="none" xmlns="http://www.w3.org/2000/svg">
<path d="M14.0684 1.875C14.7457 1.87499 15.2929 1.87499 15.7354 1.91113C15.7557 1.91279 15.7758 1.91516 15.7959 1.91699L8.97461 8.73926C8.83472 8.87925 8.73964 9.05782 8.70117 9.25195L8.35156 11.0156C8.21338 11.7139 8.82809 12.3286 9.52637 12.1904L11.29 11.8408C11.4842 11.8024 11.6627 11.7073 11.8027 11.5674L18.624 4.74512C18.6259 4.76556 18.6292 4.78597 18.6309 4.80664C18.667 5.24905 18.667 5.7963 18.667 6.47363V13.5264C18.667 14.2037 18.667 14.751 18.6309 15.1934C18.5936 15.6487 18.5147 16.0489 18.3262 16.4189C18.0266 17.0067 17.5487 17.4846 16.9609 17.7842C16.5909 17.9727 16.1907 18.0516 15.7354 18.0889C15.2929 18.125 14.7457 18.125 14.0684 18.125H7.01562C6.3383 18.125 5.79104 18.125 5.34863 18.0889C4.8933 18.0516 4.4931 17.9727 4.12305 17.7842C3.53525 17.4846 3.05738 17.0067 2.75781 16.4189C2.56926 16.0489 2.49036 15.6487 2.45313 15.1934C2.41698 14.7509 2.41699 14.2037 2.41699 13.5264V6.47363C2.41699 5.79628 2.41698 5.24906 2.45313 4.80664C2.49036 4.3513 2.56926 3.95111 2.75781 3.58105C3.05738 2.99326 3.53525 2.51539 4.12305 2.21582C4.4931 2.02727 4.8933 1.94837 5.34863 1.91113C5.56976 1.89307 5.81732 1.8844 6.09375 1.87988L7.01562 1.875H14.0684Z" fill="#808087"/>
</svg>
