<svg xmlns="http://www.w3.org/2000/svg" width="16" height="16" viewBox="0 0 16 16" fill="none">
  <path fill-rule="evenodd" clip-rule="evenodd" d="M8 15C11.866 15 15 11.866 15 8C15 4.13401 11.866 1 8 1C4.13401 1 1 4.13401 1 8C1 11.866 4.13401 15 8 15ZM11.5103 6.0955C11.7472 5.81366 11.7108 5.39313 11.429 5.1562C11.1472 4.91927 10.7266 4.95568 10.4897 5.23751L7.07543 9.29893L5.50906 7.44657C5.27132 7.16542 4.85068 7.13023 4.56953 7.36797C4.28839 7.60571 4.2532 8.02635 4.49094 8.3075L6.56786 10.7636C6.69475 10.9137 6.88137 11.0001 7.07789 10.9998C7.2744 10.9996 7.46077 10.9126 7.58723 10.7622L11.5103 6.0955Z" fill="#808087"/>
</svg>
