<svg width="21" height="20" viewBox="0 0 21 20" fill="none" xmlns="http://www.w3.org/2000/svg">
<g id="Icon">
<g id="Subtract">
<path d="M13.5712 12.0583C14.1601 12.0583 14.624 11.875 14.9629 11.5083C15.3073 11.1361 15.4795 10.6333 15.4795 10C15.4795 9.36667 15.3073 8.86667 14.9629 8.50001C14.624 8.12779 14.1601 7.94167 13.5712 7.94167L12.5712 7.95001V12.05L13.5712 12.0583Z" fill="#9D9DA4"/>
<path d="M7.62793 8.35834L8.4946 10.4917H6.73626L7.62793 8.35834Z" fill="#9D9DA4"/>
<path fill-rule="evenodd" clip-rule="evenodd" d="M14.0268 1.875H6.97325C6.29589 1.87499 5.74953 1.87499 5.30711 1.91114C4.85158 1.94836 4.45146 2.02699 4.08128 2.21561C3.49327 2.51521 3.01521 2.99327 2.71561 3.58128C2.52699 3.95146 2.44836 4.35158 2.41114 4.80711C2.37499 5.24953 2.37499 5.79588 2.375 6.47324V13.5268C2.37499 14.2041 2.37499 14.7505 2.41114 15.1929C2.44836 15.6484 2.52699 16.0485 2.71561 16.4187C3.01521 17.0067 3.49327 17.4848 4.08128 17.7844C4.45146 17.973 4.85158 18.0516 5.30711 18.0889C5.74952 18.125 6.29584 18.125 6.97317 18.125H14.0268C14.7041 18.125 15.2505 18.125 15.6929 18.0889C16.1484 18.0516 16.5485 17.973 16.9187 17.7844C17.5067 17.4848 17.9848 17.0067 18.2844 16.4187C18.473 16.0485 18.5516 15.6484 18.5889 15.1929C18.625 14.7505 18.625 14.2042 18.625 13.5268V6.47323C18.625 5.7959 18.625 5.24952 18.5889 4.80711C18.5516 4.35158 18.473 3.95146 18.2844 3.58128C17.9848 2.99327 17.5067 2.51521 16.9187 2.21561C16.5485 2.02699 16.1484 1.94836 15.6929 1.91114C15.2505 1.87499 14.7041 1.87499 14.0268 1.875ZM11.3045 6.84167H13.5962C14.2073 6.84167 14.7517 6.97501 15.2295 7.24167C15.7073 7.50834 16.0795 7.88334 16.3462 8.36667C16.6129 8.84445 16.7462 9.3889 16.7462 10C16.7462 10.6111 16.6129 11.1583 16.3462 11.6417C16.0795 12.1195 15.7073 12.4917 15.2295 12.7583C14.7517 13.025 14.2073 13.1583 13.5962 13.1583H11.3045V6.84167ZM9.58626 13.1583H10.9529L8.37793 6.84167H6.88626L4.25293 13.1583H5.62793L6.28626 11.575H8.93626L9.58626 13.1583Z" fill="#9D9DA4"/>
</g>
</g>
</svg>
