<svg width="16" height="17" viewBox="0 0 16 17" fill="none" xmlns="http://www.w3.org/2000/svg">
<path d="M5.16654 3.16675C5.16654 2.89061 4.94269 2.66675 4.66654 2.66675C4.3904 2.66675 4.16654 2.89061 4.16654 3.16675V4.3777C3.17116 4.51842 2.3848 5.30572 2.25168 6.30997L2.19398 6.74528C2.18419 6.81908 2.17484 6.89292 2.16591 6.9668C2.14224 7.16278 2.29664 7.33341 2.49404 7.33341H13.5057C13.7031 7.33341 13.8575 7.16278 13.8338 6.9668C13.8249 6.89292 13.8155 6.81908 13.8057 6.74527L13.748 6.30997C13.6149 5.30573 12.8286 4.51844 11.8332 4.3777V3.16675C11.8332 2.89061 11.6094 2.66675 11.3332 2.66675C11.0571 2.66675 10.8332 2.89061 10.8332 3.16675V4.2785C8.94806 4.11062 7.0517 4.11062 5.16654 4.2785V3.16675Z" fill="#808087"/>
<path d="M13.9629 8.65045C13.9571 8.47283 13.8103 8.33341 13.6326 8.33341H2.36712C2.18941 8.33341 2.04263 8.47283 2.03679 8.65045C1.9972 9.85556 2.0704 11.0631 2.25622 12.2573C2.39689 13.1613 3.13133 13.8557 4.04183 13.9455L4.83716 14.0239C6.94053 14.2314 9.05919 14.2314 11.1626 14.0239L11.9579 13.9455C12.8684 13.8557 13.6028 13.1613 13.7435 12.2573C13.9293 11.0631 14.0025 9.85556 13.9629 8.65045Z" fill="#808087"/>
</svg>
