<svg xmlns="http://www.w3.org/2000/svg" width="16" height="16" viewBox="0 0 16 16" fill="none">
  <path fill-rule="evenodd" clip-rule="evenodd" d="M2.23525 5.67131C2 6.1828 2 6.7647 2 7.92849V11.5631C2 13.1794 2 13.9875 2.5021 14.4896C3.00421 14.9917 3.81233 14.9917 5.42857 14.9917H10.5714C11.6627 14.9917 12.3856 14.9917 12.8946 14.8371L9.66667 11.6092V13.2998C9.66667 13.6679 9.36819 13.9664 9 13.9664C8.63181 13.9664 8.33333 13.6679 8.33333 13.2998V9.99976C8.33333 9.63157 8.63181 9.33309 9 9.33309H12.3C12.6682 9.33309 12.9667 9.63157 12.9667 9.99976C12.9667 10.3679 12.6682 10.6664 12.3 10.6664H10.6095L13.8417 13.8986C14 13.389 14 12.6632 14 11.5631V7.92849C14 6.7647 14 6.1828 13.7647 5.67131C13.5295 5.15982 13.0877 4.78113 12.2041 4.02374L11.3469 3.28905C9.7498 1.92008 8.95123 1.2356 8 1.2356C7.04877 1.2356 6.2502 1.92008 4.65307 3.28905L3.79593 4.02374C2.91231 4.78113 2.47051 5.15982 2.23525 5.67131Z" fill="#808087"/>
</svg>