<svg width="16" height="17" viewBox="0 0 16 17" fill="none" xmlns="http://www.w3.org/2000/svg">
<path d="M5.83333 7.16667C5.83333 5.97005 6.80338 5 8 5C9.19662 5 10.1667 5.97005 10.1667 7.16667C10.1667 8.36328 9.19662 9.33333 8 9.33333C6.80338 9.33333 5.83333 8.36328 5.83333 7.16667Z" fill="#808087"/>
<path fill-rule="evenodd" clip-rule="evenodd" d="M2.5157 6.41826C2.74479 3.63896 5.06732 1.5 7.85604 1.5H8.144C10.9327 1.5 13.2552 3.63896 13.4843 6.41826C13.6077 7.91466 13.1455 9.40052 12.195 10.5629L8.99964 14.4707C8.483 15.1026 7.51704 15.1026 7.00039 14.4707L3.80502 10.5629C2.85458 9.40052 2.39235 7.91466 2.5157 6.41826ZM8 4C6.2511 4 4.83333 5.41777 4.83333 7.16667C4.83333 8.91557 6.2511 10.3333 8 10.3333C9.7489 10.3333 11.1667 8.91557 11.1667 7.16667C11.1667 5.41777 9.7489 4 8 4Z" fill="#808087"/>
</svg>
