<svg width="22" height="22" viewBox="0 0 22 22" fill="none" xmlns="http://www.w3.org/2000/svg">
<g id="Icon / General / trash">
<path id="Icon" d="M14.6667 5.50004V4.76671C14.6667 3.73994 14.6667 3.22656 14.4668 2.83439C14.2911 2.48943 14.0106 2.20896 13.6656 2.0332C13.2735 1.83337 12.7601 1.83337 11.7333 1.83337H10.2667C9.2399 1.83337 8.72652 1.83337 8.33435 2.0332C7.98939 2.20896 7.70892 2.48943 7.53315 2.83439C7.33333 3.22656 7.33333 3.73994 7.33333 4.76671V5.50004M9.16667 10.5417V15.125M12.8333 10.5417V15.125M2.75 5.50004H19.25M17.4167 5.50004V15.7667C17.4167 17.3069 17.4167 18.0769 17.1169 18.6652C16.8533 19.1826 16.4326 19.6033 15.9151 19.867C15.3269 20.1667 14.5568 20.1667 13.0167 20.1667H8.98333C7.44319 20.1667 6.67312 20.1667 6.08486 19.867C5.56741 19.6033 5.14672 19.1826 4.88307 18.6652C4.58333 18.0769 4.58333 17.3069 4.58333 15.7667V5.50004" stroke="#C3C3C6" stroke-width="1.375" stroke-linecap="round" stroke-linejoin="round"/>
</g>
</svg>
