<svg width="648" height="226" viewBox="0 0 648 226" fill="none" xmlns="http://www.w3.org/2000/svg">
<path fill-rule="evenodd" clip-rule="evenodd" d="M515.675 8.44567V16.9956H513.755L513.297 14.9672C512.032 16.4939 509.808 17.4318 507.365 17.4318C500.778 17.4318 498.204 13.5931 498.204 9.20906C498.204 4.82506 500.931 0.986328 507.278 0.986328C512.011 0.986328 515.042 3.38553 515.391 6.43907H511.858C511.269 4.3234 509.306 3.42915 507.19 3.42915C503.155 3.42915 501.607 5.89379 501.607 9.31811C501.607 13.4622 504.268 14.989 507.016 14.989C510.353 14.989 511.88 13.4622 512.403 10.8885H507.997V8.44567H515.675ZM631.335 1.42188V16.9949H634.607V10.8442H640.168C642.568 10.8442 642.873 12.4146 642.873 14.6393C642.873 15.7735 643.026 16.5587 643.266 16.9949H646.799C646.166 16.1443 646.145 14.3994 646.145 13.6578C646.145 11.4549 645.73 9.84091 643.876 9.44831V9.40469C645.338 8.94666 646.45 7.68162 646.45 5.6532C646.45 3.23218 645.163 1.42188 641.193 1.42188H631.335ZM640.256 8.40138H634.607V3.8647H640.256C641.979 3.8647 643.047 4.49722 643.047 6.11123C643.047 7.85611 642.066 8.40138 640.256 8.40138ZM315.097 74.0128C314.548 67.5762 311.275 62.16 306.404 58.6202C306.278 58.5295 306.152 58.4389 306.025 58.3503C305.836 58.2196 305.645 58.0889 305.451 57.9645C305.405 57.935 305.359 57.9055 305.314 57.8781C304.871 57.5935 304.412 57.3236 303.945 57.0706C300.552 55.2259 296.592 54.1865 292.341 54.1738H194.63C189.069 54.1907 184.002 55.9617 180.058 59.0018C179.867 59.1494 179.677 59.2991 179.492 59.453C179.223 59.6743 178.96 59.902 178.704 60.1361C178.468 60.349 178.239 60.5683 178.014 60.7917L178.003 60.8023C174.564 64.2261 172.32 68.7822 171.874 74.0128C171.864 74.1456 171.859 74.2806 171.857 74.4134V74.4303V96.2595H272.462C272.656 96.2595 272.839 96.2995 273.005 96.3691C273.047 96.386 273.087 96.407 273.127 96.4281C273.19 96.4619 273.247 96.5019 273.304 96.5441C273.64 96.7992 273.857 97.2019 273.857 97.6572V183.028C273.857 183.414 273.701 183.764 273.449 184.017C273.196 184.27 272.847 184.426 272.462 184.426H214.389C214.149 184.426 213.922 184.365 213.724 184.257C213.718 184.253 213.711 184.249 213.705 184.246L213.698 184.241L213.684 184.232C213.581 184.171 213.487 184.099 213.405 184.017C213.257 183.869 213.146 183.69 213.076 183.492C213.026 183.346 212.997 183.193 212.997 183.03V106.904C212.997 106.556 212.919 106.227 212.782 105.93C212.666 105.679 212.509 105.449 212.315 105.256C212.262 105.203 212.208 105.152 212.151 105.106C211.749 104.773 211.234 104.575 210.672 104.575H171.754V202.285C171.737 203.942 171.889 205.549 172.194 207.094C172.2 207.127 172.206 207.16 172.213 207.194C172.222 207.241 172.232 207.288 172.242 207.335C172.305 207.638 172.375 207.94 172.448 208.237L172.461 208.287C172.482 208.37 172.503 208.454 172.526 208.536C172.6 208.812 172.678 209.084 172.76 209.354C172.795 209.472 172.833 209.593 172.871 209.711C173.01 210.141 173.161 210.564 173.323 210.982C173.601 211.695 173.91 212.386 174.253 213.061C174.337 213.225 174.421 213.387 174.51 213.55C174.555 213.634 174.601 213.718 174.648 213.802C174.706 213.907 174.765 214.011 174.825 214.115C174.903 214.252 174.983 214.387 175.065 214.522C175.5 215.243 175.971 215.936 176.478 216.6C176.642 216.816 176.809 217.028 176.981 217.237C181.449 222.693 188.312 226.05 195.697 225.953H291.161C303.994 226.122 315.249 215.863 315.103 202.289L315.112 130.049L315.116 89.6711V74.4366C315.116 74.2974 315.112 74.1583 315.101 74.0191L315.097 74.0128ZM475.58 110.756V73.4436C475.58 73.4436 475.515 66.307 469.863 60.7327C466.239 57.1592 460.321 54.2266 450.649 54.2266H335.994C335.031 54.2266 334.204 54.8127 333.853 55.6497C333.794 55.7888 333.748 55.9343 333.718 56.0861C333.689 56.2379 333.672 56.3939 333.672 56.5562V58.013V59.8768V90.565V92.4604V96.2468H427.004C427.161 96.2468 427.311 96.2742 427.454 96.3227C427.561 96.3586 427.662 96.4092 427.757 96.4682C427.771 96.4766 427.786 96.4872 427.801 96.4977C428.053 96.6727 428.245 96.9299 428.337 97.2293C428.364 97.3178 428.383 97.4085 428.392 97.5013C428.394 97.5264 428.396 97.5522 428.397 97.5782L428.398 97.6018L428.398 97.6167L428.398 97.6446V102.839V126.075V129.625C428.398 130.397 427.773 131.023 427.004 131.023H380.459C379.689 131.023 379.064 130.397 379.064 129.625V127.159V112.569V106.894C379.064 106.546 378.986 106.217 378.85 105.92C378.482 105.118 377.676 104.562 376.74 104.562H333.674V217.754V222.93V223.642C333.674 223.802 333.691 223.961 333.72 224.112C333.75 224.264 333.796 224.41 333.855 224.549C334.08 225.082 334.499 225.512 335.02 225.755C335.317 225.894 335.647 225.972 335.996 225.972H376.738C377.087 225.972 377.417 225.892 377.714 225.755C378.235 225.512 378.654 225.082 378.879 224.549C378.938 224.41 378.984 224.264 379.014 224.112C379.043 223.961 379.06 223.805 379.06 223.642V222.93V216.329V172.221H452.214L452.223 172.219C452.251 172.22 452.279 172.22 452.307 172.221C452.378 172.222 452.45 172.222 452.521 172.222C452.599 172.222 452.678 172.221 452.757 172.219C457.21 172.164 461.753 170.446 465.602 167.701C465.909 167.482 466.214 167.256 466.513 167.022C466.811 166.79 467.106 166.55 467.394 166.305C467.827 165.938 468.248 165.559 468.656 165.165C472.871 161.108 475.679 155.749 475.582 150.303V110.754L475.58 110.756ZM577.458 54.2266H489.841C489.563 54.2266 489.298 54.2772 489.05 54.3678C488.943 54.4058 488.84 54.45 488.741 54.5049L488.732 54.5091C488.007 54.9033 487.517 55.6728 487.517 56.5583V93.9193C487.517 95.2053 488.558 96.2489 489.841 96.2489H530.677C530.852 96.2489 531.018 96.2827 531.174 96.3417C531.571 96.4935 531.882 96.8203 532.009 97.2314C532.036 97.3199 532.055 97.4106 532.063 97.5034C532.065 97.5213 532.066 97.5395 532.067 97.558C532.068 97.5692 532.068 97.5805 532.069 97.5918L532.069 97.6153L532.07 97.6313L532.07 97.6467V217.699V222.348V223.64C532.07 223.8 532.086 223.958 532.116 224.11C532.145 224.262 532.192 224.407 532.251 224.547C532.476 225.08 532.894 225.51 533.416 225.753C533.712 225.892 534.043 225.97 534.392 225.97H575.133C576.417 225.97 577.458 224.926 577.458 223.64V54.2266ZM646.432 54.2266H585.748V96.2489H616.728C619.313 96.2489 620.569 95.5933 622.02 93.5524L647.281 56.8535L647.58 56.4192C648.217 55.4915 647.557 54.2266 646.432 54.2266ZM128.723 55.1521L156.935 92.8441H156.933L157.806 94.0121C158.496 94.9334 157.84 96.2489 156.691 96.2489H15.6494V73.4457C15.6494 62.1896 24.3257 54.3193 37.3096 54.2266H126.878C127.604 54.2266 128.288 54.5702 128.723 55.1521ZM157.961 192.907C157.978 193.383 157.982 193.866 157.978 194.355L157.98 194.37C157.917 201.061 155.874 208.984 148.952 216.29C142.935 222.64 134.414 225.988 125.679 225.988H3.25779C2.99487 225.988 2.74457 225.941 2.509 225.861C2.20822 225.758 1.93268 225.593 1.70131 225.383C1.64663 225.332 1.59404 225.279 1.54356 225.224C1.21544 224.866 0.998797 224.404 0.946214 223.894C0.9378 223.816 0.933594 223.736 0.933594 223.656V220.35V186.765C0.933594 186.603 0.948317 186.447 0.979867 186.295C0.994591 186.219 1.01352 186.145 1.03666 186.071C1.11027 185.827 1.22806 185.603 1.37319 185.401C1.79597 184.815 2.47955 184.433 3.25569 184.433H95.0835C95.2539 184.433 95.4095 184.404 95.5546 184.353C96.4612 184.033 96.8272 182.818 96.0784 182.055L49.5082 134.553L26.2221 110.804L25.1641 109.724L20.8964 105.373C20.6083 105.077 20.8165 104.58 21.2288 104.58H82.1311C82.7369 104.58 83.3237 104.751 83.8327 105.065C84.0388 105.191 84.2302 105.337 84.4048 105.507C87.7491 108.782 99.4248 120.219 111.126 131.836C111.447 132.155 111.768 132.474 112.089 132.793C112.412 133.114 112.734 133.434 113.057 133.754C113.384 134.079 113.71 134.403 114.036 134.727L114.039 134.731L114.043 134.735L115.963 136.647L115.974 136.657C117.577 138.253 119.156 139.832 120.692 141.372C126.226 146.921 131.192 151.959 134.551 155.491C135.617 156.612 136.681 157.709 137.741 158.792C137.979 159.035 138.216 159.278 138.453 159.519L139.082 160.161L139.126 160.206L139.136 160.216C139.376 160.46 139.615 160.704 139.853 160.947C140.213 161.314 140.57 161.681 140.928 162.048C141.614 162.752 142.297 163.456 142.972 164.164L142.994 164.186L142.995 164.188C143.328 164.539 143.664 164.891 143.995 165.244C144.495 165.777 144.992 166.315 145.486 166.854C145.837 167.238 146.184 167.624 146.531 168.012C146.838 168.358 147.145 168.705 147.45 169.058C147.802 169.462 148.149 169.869 148.494 170.28C148.9 170.765 149.304 171.254 149.701 171.75L149.704 171.754C149.848 171.934 149.992 172.114 150.134 172.296C150.359 172.581 150.584 172.865 150.805 173.154C151.022 173.439 151.234 173.725 151.443 174.016L151.613 174.257C151.783 174.499 151.952 174.744 152.118 174.99L152.153 175.042L152.174 175.074C152.193 175.102 152.212 175.13 152.231 175.159C152.425 175.45 152.612 175.745 152.797 176.042C152.833 176.099 152.868 176.156 152.903 176.213L152.95 176.292L152.951 176.293C153.092 176.525 153.228 176.757 153.365 176.991C153.393 177.037 153.421 177.084 153.448 177.131L153.484 177.193L153.515 177.248L153.517 177.251L153.519 177.255C153.687 177.552 153.851 177.851 154.011 178.153L154.043 178.215L154.044 178.218C154.061 178.251 154.078 178.284 154.095 178.317C154.109 178.345 154.124 178.374 154.139 178.402C154.261 178.633 154.379 178.867 154.495 179.101L154.558 179.231C154.591 179.298 154.624 179.366 154.657 179.435C154.785 179.702 154.911 179.974 155.033 180.246C155.055 180.296 155.077 180.345 155.098 180.395C155.114 180.431 155.129 180.466 155.145 180.502L155.163 180.544C155.275 180.797 155.382 181.05 155.485 181.305C155.535 181.427 155.585 181.552 155.635 181.677L155.637 181.682C155.725 181.901 155.809 182.123 155.891 182.346L155.908 182.393L155.935 182.465L155.952 182.511C155.973 182.566 155.993 182.62 156.013 182.675C156.12 182.977 156.226 183.28 156.324 183.586L156.451 183.984C156.518 184.193 156.581 184.402 156.642 184.613C156.682 184.743 156.72 184.876 156.758 185.009C156.762 185.022 156.767 185.036 156.771 185.05C156.774 185.062 156.778 185.075 156.781 185.087C156.855 185.357 156.926 185.627 156.993 185.899L157.011 185.973L157.027 186.038L157.028 186.043L157.028 186.044C157.043 186.103 157.057 186.163 157.071 186.223C157.141 186.514 157.208 186.807 157.269 187.102C157.283 187.166 157.296 187.231 157.309 187.294L157.315 187.326C157.376 187.627 157.433 187.929 157.486 188.232L157.499 188.309L157.53 188.483C157.587 188.816 157.637 189.152 157.681 189.489C157.685 189.525 157.69 189.561 157.695 189.597L157.7 189.636C157.703 189.66 157.706 189.683 157.708 189.706C157.755 190.062 157.795 190.419 157.828 190.777C157.891 191.467 157.938 192.179 157.961 192.907ZM606.012 16.9949V1.42188H619.534V3.8647H609.283V7.79067H619.12V10.2335H609.283V14.5521H619.709V16.9949H606.012ZM577.465 1.42188V16.9949H580.736V9.92815H590.399V16.9949H593.67V1.42188H590.399V7.48532H580.736V1.42188H577.465ZM557.606 16.9949V3.8647H551.761V1.42188H566.723V3.8647H560.878V16.9949H557.606ZM528.024 1.42188V16.9949H541.722V14.5521H531.296V10.2335H541.133V7.79067H531.296V3.8647H541.547V1.42188H528.024ZM469.279 9.20906C469.279 13.5931 471.853 17.4318 478.44 17.4318C485.027 17.4318 487.6 13.5931 487.6 9.20906C487.6 4.82506 485.027 0.986328 478.44 0.986328C471.853 0.986328 469.279 4.82506 469.279 9.20906ZM484.198 9.20906C484.198 12.6334 482.104 14.989 478.44 14.989C474.776 14.989 472.682 12.6334 472.682 9.20906C472.682 5.78474 474.776 3.42915 478.44 3.42915C482.104 3.42915 484.198 5.78474 484.198 9.20906ZM450.291 16.9949V3.8647H444.445V1.42188H459.408V3.8647H453.562V16.9949H450.291ZM400.663 1.42188V16.9949H403.804V5.30423H403.848L413.183 16.9949H416.869V1.42188H413.728V13.1125H413.684L404.415 1.42188H400.663ZM380.028 17.4318C373.441 17.4318 370.867 13.5931 370.867 9.20906C370.867 4.82506 373.441 0.986328 380.028 0.986328C386.615 0.986328 389.188 4.82506 389.188 9.20906C389.188 13.5931 386.615 17.4318 380.028 17.4318ZM380.028 14.989C383.692 14.989 385.786 12.6334 385.786 9.20906C385.786 5.78474 383.692 3.42915 380.028 3.42915C376.364 3.42915 374.27 5.78474 374.27 9.20906C374.27 12.6334 376.364 14.989 380.028 14.989ZM356.128 1.42188V16.9949H359.4V1.42188H356.128ZM329.97 5.80655C329.97 2.33861 333.046 0.986328 336.841 0.986328C339.24 0.986328 344.038 1.42255 344.453 5.93741H340.919C340.81 4.73781 339.72 3.42915 336.993 3.42915C334.812 3.42915 333.373 4.1053 333.373 5.56663C333.373 7.12761 335.478 7.38633 337.896 7.68334C341.153 8.08353 344.976 8.55323 344.976 12.3716C344.976 16.3849 340.81 17.4318 337.495 17.4318C331.89 17.4318 329.643 15.2289 329.599 11.9572H333.133C333.22 14.0075 334.921 14.989 337.604 14.989C339.589 14.989 341.443 14.4001 341.443 12.6988C341.443 11.0105 339.249 10.7029 336.779 10.3568C333.602 9.91149 329.97 9.40236 329.97 5.80655ZM311.516 0.986328C307.721 0.986328 304.645 2.33861 304.645 5.80655C304.645 9.40236 308.277 9.91149 311.454 10.3568C313.924 10.7029 316.118 11.0105 316.118 12.6988C316.118 14.4001 314.264 14.989 312.279 14.989C309.596 14.989 307.895 14.0075 307.808 11.9572H304.274C304.318 15.2289 306.565 17.4318 312.17 17.4318C315.485 17.4318 319.651 16.3849 319.651 12.3716C319.651 8.55323 315.828 8.08353 312.571 7.68334C310.153 7.38633 308.048 7.12761 308.048 5.56663C308.048 4.1053 309.487 3.42915 311.668 3.42915C314.395 3.42915 315.485 4.73781 315.594 5.93741H319.128C318.713 1.42255 313.915 0.986328 311.516 0.986328ZM283.29 10.6915H288.655L285.995 4.12643L283.29 10.6915ZM277.161 16.9949L284.097 1.42188H287.979L294.915 16.9949H291.273L289.637 13.1344H282.309L280.694 16.9949H277.161ZM256.895 8.61949V3.8647H262.391C263.656 3.8647 265.008 4.34454 265.008 6.26391C265.008 8.11784 264.005 8.61949 262.151 8.61949H256.895ZM253.623 1.42188V16.9949H256.895V11.0623H263.263C266.775 11.0623 268.28 8.6413 268.28 6.26391C268.28 3.75565 267.037 1.42188 263.22 1.42188H253.623ZM209.849 16.9949V1.42188H219.707C223.677 1.42188 224.964 3.23218 224.964 5.6532C224.964 7.68162 223.851 8.94666 222.39 9.40469V9.44831C224.244 9.84091 224.658 11.4549 224.658 13.6578C224.658 14.3994 224.68 16.1443 225.313 16.9949H221.779C221.539 16.5587 221.387 15.7735 221.387 14.6393C221.387 12.4146 221.081 10.8442 218.682 10.8442H213.12V16.9949H209.849ZM213.12 8.40138H218.769C220.58 8.40138 221.561 7.85611 221.561 6.11123C221.561 4.49722 220.492 3.8647 218.769 3.8647H213.12V8.40138ZM182.389 1.42188V10.2989C182.389 12.8726 182.476 17.4311 190.001 17.4311C197.547 17.4311 197.635 12.8726 197.635 10.2989V1.42188H194.363V10.2117C194.363 12.371 194.276 14.9883 190.001 14.9883C185.748 14.9883 185.66 12.371 185.66 10.2117V1.42188H182.389ZM161.882 17.4318C155.295 17.4318 152.721 13.5931 152.721 9.20906C152.721 4.82506 155.295 0.986328 161.882 0.986328C168.469 0.986328 171.043 4.82506 171.043 9.20906C171.043 13.5931 168.469 17.4318 161.882 17.4318ZM161.882 14.989C165.546 14.989 167.64 12.6334 167.64 9.20906C167.64 5.78474 165.546 3.42915 161.882 3.42915C158.218 3.42915 156.124 5.78474 156.124 9.20906C156.124 12.6334 158.218 14.989 161.882 14.989ZM116.903 3.8647V16.9949H120.175V3.8647H126.02V1.42188H111.058V3.8647H116.903ZM85.1904 10.2989V1.42188H88.4621V10.2117C88.4621 12.371 88.5493 14.9883 92.8025 14.9883C97.0774 14.9883 97.1646 12.371 97.1646 10.2117V1.42188H100.436V10.2989C100.436 12.8726 100.349 17.4311 92.8025 17.4311C85.2777 17.4311 85.1904 12.8726 85.1904 10.2989ZM55.5215 9.20906C55.5215 13.5931 58.0952 17.4318 64.6821 17.4318C71.269 17.4318 73.8427 13.5931 73.8427 9.20906C73.8427 4.82506 71.269 0.986328 64.6821 0.986328C58.0952 0.986328 55.5215 4.82506 55.5215 9.20906ZM70.4402 9.20906C70.4402 12.6334 68.3463 14.989 64.6821 14.989C61.0178 14.989 58.924 12.6334 58.924 9.20906C58.924 5.78474 61.0178 3.42915 64.6821 3.42915C68.3463 3.42915 70.4402 5.78474 70.4402 9.20906ZM27.8506 16.9949V1.42188H31.1222V7.48532H40.7845V1.42188H44.0561V16.9949H40.7845V9.92815H31.1222V16.9949H27.8506ZM8.56741 0.986328C4.7723 0.986328 1.69696 2.33861 1.69696 5.80655C1.69696 9.40236 5.32916 9.91149 8.5061 10.3568C10.9753 10.7029 13.1695 11.0105 13.1695 12.6988C13.1695 14.4001 11.3156 14.989 9.33079 14.989C6.64805 14.989 4.94679 14.0075 4.85955 11.9572H1.32617C1.36979 15.2289 3.61632 17.4318 9.22174 17.4318C12.537 17.4318 16.7029 16.3849 16.7029 12.3716C16.7029 8.55323 12.8799 8.08353 9.62267 7.68334C7.20525 7.38633 5.09947 7.12761 5.09947 5.56663C5.09947 4.1053 6.53899 3.42915 8.72009 3.42915C11.4465 3.42915 12.537 4.73781 12.6461 5.93741H16.1794C15.765 1.42255 10.9666 0.986328 8.56741 0.986328Z" fill="#5BA3FF"/>
</svg>
