<svg width="1306" height="460" viewBox="0 0 1306 460" fill="none" xmlns="http://www.w3.org/2000/svg">
<path fill-rule="evenodd" clip-rule="evenodd" d="M616.742 122.004C626.569 129.145 633.171 140.071 634.279 153.056L634.287 153.069C634.308 153.35 634.317 153.63 634.317 153.911V184.644L634.308 266.1L634.291 411.833C634.584 439.215 611.879 459.91 585.992 459.57H393.408C378.51 459.766 364.665 452.995 355.652 441.988C355.304 441.567 354.969 441.137 354.638 440.703C353.616 439.363 352.665 437.964 351.787 436.51C351.621 436.237 351.46 435.965 351.303 435.689C351.087 435.314 350.874 434.932 350.667 434.549C350.488 434.221 350.319 433.894 350.149 433.562C349.457 432.201 348.834 430.806 348.273 429.369C347.947 428.526 347.641 427.672 347.361 426.804C347.285 426.566 347.208 426.323 347.136 426.085C346.971 425.541 346.814 424.992 346.665 424.435C346.649 424.378 346.634 424.32 346.619 424.262C346.602 424.197 346.585 424.132 346.568 424.067L346.508 423.831C346.36 423.231 346.22 422.623 346.092 422.011C346.058 421.849 346.025 421.687 345.995 421.526C345.38 418.408 345.074 415.167 345.108 411.824V214.709H423.619C424.752 214.709 425.792 215.109 426.602 215.781C426.716 215.875 426.827 215.977 426.933 216.083C427.323 216.474 427.642 216.938 427.875 217.444C428.151 218.044 428.308 218.707 428.308 219.409V372.981C428.308 373.308 428.367 373.619 428.469 373.912C428.609 374.312 428.834 374.673 429.131 374.971C429.296 375.137 429.487 375.282 429.695 375.405C429.721 375.422 429.746 375.439 429.776 375.456C430.175 375.673 430.633 375.796 431.117 375.796H548.27C549.047 375.796 549.751 375.482 550.26 374.971C550.769 374.461 551.083 373.755 551.083 372.976V200.755C551.083 199.836 550.646 199.024 549.967 198.509C549.853 198.424 549.738 198.343 549.611 198.275C549.53 198.233 549.45 198.19 549.365 198.156C549.03 198.016 548.66 197.935 548.27 197.935H345.316V153.898V153.864C345.32 153.596 345.329 153.324 345.35 153.056C346.249 142.504 350.777 133.313 357.714 126.406L357.736 126.385C358.19 125.934 358.652 125.492 359.127 125.062C359.645 124.59 360.175 124.131 360.719 123.684C361.092 123.374 361.474 123.072 361.86 122.774C369.816 116.641 380.038 113.068 391.257 113.034H588.372C596.947 113.06 604.937 115.157 611.781 118.878C612.723 119.388 613.648 119.933 614.544 120.507C614.594 120.538 614.646 120.571 614.698 120.604L614.82 120.681C615.21 120.932 615.596 121.196 615.978 121.46C616.23 121.636 616.482 121.817 616.734 121.998L616.734 121.999L616.742 122.004ZM958.021 151.907V227.179L958.025 227.174V306.959C958.22 317.945 952.556 328.756 944.053 336.939C943.229 337.734 942.381 338.5 941.507 339.24C940.925 339.733 940.331 340.218 939.729 340.686C939.126 341.158 938.511 341.613 937.891 342.055C930.127 347.593 920.961 351.059 911.979 351.17C911.618 351.178 911.257 351.178 910.901 351.17L910.884 351.174H763.307V440.154V453.47V454.908C763.307 455.235 763.273 455.55 763.214 455.856C763.154 456.162 763.061 456.456 762.942 456.737C762.488 457.813 761.644 458.68 760.591 459.169C759.993 459.446 759.327 459.607 758.623 459.607H676.433C675.728 459.607 675.062 459.45 674.464 459.169C673.412 458.68 672.567 457.813 672.113 456.737C671.995 456.456 671.901 456.162 671.842 455.856C671.782 455.55 671.748 455.231 671.748 454.908V453.47V443.029V214.683H758.627C760.515 214.683 762.14 215.806 762.883 217.422C763.159 218.022 763.316 218.685 763.316 219.387V230.836V260.268V265.244C763.316 266.801 764.576 268.064 766.129 268.064H860.025C861.578 268.064 862.839 266.801 862.839 265.244V258.082V211.208V200.729C862.839 200.631 862.834 200.533 862.826 200.439C862.809 200.252 862.771 200.069 862.716 199.891C862.529 199.287 862.143 198.768 861.634 198.415C861.604 198.394 861.574 198.372 861.544 198.355C861.354 198.236 861.15 198.134 860.933 198.062C860.645 197.964 860.344 197.909 860.025 197.909H671.744V190.27V186.447V124.538V120.778V117.839C671.744 117.512 671.778 117.197 671.838 116.891C671.897 116.585 671.99 116.291 672.109 116.011C672.818 114.322 674.485 113.14 676.429 113.14H907.727C927.237 113.14 939.177 119.056 946.488 126.265C957.889 137.51 958.021 151.907 958.021 151.907ZM986.784 113.14H1163.54V454.903C1163.54 457.498 1161.44 459.603 1158.85 459.603H1076.66C1075.95 459.603 1075.29 459.446 1074.69 459.165C1073.64 458.676 1072.79 457.808 1072.34 456.732C1072.22 456.452 1072.13 456.158 1072.07 455.852C1072.01 455.546 1071.97 455.227 1071.97 454.903V452.296V442.918V200.733C1071.97 200.635 1071.97 200.537 1071.96 200.444C1071.94 200.256 1071.91 200.073 1071.85 199.895C1071.6 199.066 1070.97 198.406 1070.17 198.1C1069.85 197.981 1069.52 197.913 1069.17 197.913H986.784C984.196 197.913 982.096 195.808 982.096 193.213V117.844C982.096 116.057 983.084 114.505 984.548 113.71L984.565 113.701C984.765 113.591 984.973 113.501 985.189 113.425C985.69 113.242 986.224 113.14 986.784 113.14ZM1180.26 113.14H1302.68C1304.95 113.14 1306.28 115.692 1305 117.563L1304.4 118.439L1253.43 192.473C1250.51 196.59 1247.97 197.913 1242.76 197.913H1180.26V113.14ZM315.208 191.044L258.295 115.007C257.417 113.833 256.038 113.14 254.574 113.14H73.8835C47.6905 113.327 30.1875 129.204 30.1875 151.911V197.913H314.716C317.033 197.913 318.357 195.259 316.965 193.4L315.204 191.044H315.208ZM317.311 395.824C317.319 394.837 317.311 393.864 317.277 392.902C317.23 391.435 317.137 389.997 317.009 388.607C316.941 387.884 316.861 387.165 316.767 386.446C316.759 386.374 316.749 386.3 316.74 386.226C316.73 386.153 316.721 386.08 316.712 386.008C316.623 385.328 316.521 384.651 316.407 383.979C316.392 383.894 316.377 383.81 316.362 383.726C316.347 383.642 316.333 383.558 316.318 383.473C316.212 382.861 316.097 382.253 315.974 381.644C315.96 381.575 315.946 381.505 315.932 381.434C315.923 381.389 315.914 381.344 315.904 381.3C315.896 381.264 315.889 381.229 315.881 381.194C315.758 380.598 315.622 380.007 315.482 379.42C315.431 379.199 315.376 378.982 315.325 378.765C315.189 378.216 315.045 377.672 314.896 377.128C314.892 377.111 314.887 377.094 314.883 377.077C314.872 377.041 314.861 377.005 314.85 376.97C314.804 376.812 314.759 376.653 314.713 376.495C314.681 376.387 314.649 376.278 314.616 376.171C314.493 375.745 314.366 375.324 314.23 374.903L313.975 374.099C313.776 373.483 313.564 372.87 313.347 372.262C313.307 372.152 313.266 372.042 313.225 371.931C313.183 371.82 313.142 371.709 313.101 371.598C312.936 371.148 312.766 370.701 312.588 370.259C312.525 370.1 312.461 369.941 312.398 369.783C312.359 369.687 312.321 369.592 312.282 369.497C312.074 368.983 311.858 368.472 311.633 367.962C311.589 367.862 311.545 367.762 311.502 367.662C311.485 367.624 311.469 367.586 311.452 367.549C311.425 367.487 311.398 367.424 311.37 367.362C311.124 366.814 310.869 366.265 310.611 365.725C310.561 365.62 310.511 365.516 310.46 365.412C310.429 365.348 310.398 365.284 310.366 365.221L310.284 365.053C310.051 364.581 309.813 364.109 309.567 363.641C309.53 363.572 309.493 363.501 309.457 363.431C309.428 363.376 309.4 363.32 309.372 363.265L309.308 363.139C308.985 362.531 308.655 361.927 308.315 361.327C308.213 361.149 308.111 360.97 308.005 360.796C307.729 360.323 307.454 359.856 307.169 359.388L307.169 359.387C307.067 359.217 306.966 359.047 306.86 358.882C306.486 358.282 306.109 357.686 305.718 357.1C305.68 357.042 305.642 356.986 305.603 356.929C305.565 356.873 305.527 356.817 305.489 356.759C305.154 356.262 304.814 355.768 304.471 355.279L304.127 354.794C303.707 354.207 303.278 353.629 302.841 353.055C302.396 352.472 301.942 351.898 301.488 351.324C301.199 350.954 300.907 350.588 300.614 350.222C299.812 349.223 298.997 348.236 298.178 347.258C297.482 346.428 296.782 345.608 296.074 344.791C295.458 344.081 294.839 343.379 294.219 342.681C293.519 341.899 292.819 341.121 292.11 340.347C291.113 339.258 290.112 338.173 289.102 337.097C288.438 336.39 287.765 335.682 287.096 334.979L287.04 334.92C285.678 333.49 284.299 332.07 282.916 330.649C282.194 329.909 281.473 329.169 280.747 328.429C280.264 327.936 279.78 327.442 279.295 326.948C278.361 325.997 277.425 325.042 276.487 324.083C274.349 321.896 272.202 319.685 270.05 317.422C263.274 310.298 253.256 300.133 242.092 288.939C238.995 285.834 235.808 282.649 232.575 279.429L232.554 279.408L228.68 275.55C228.018 274.891 227.356 274.232 226.69 273.573C226.384 273.269 226.079 272.966 225.773 272.662C225.431 272.322 225.088 271.981 224.745 271.641C224.095 270.994 223.445 270.348 222.794 269.702C199.19 246.268 175.636 223.194 168.889 216.589C168.537 216.245 168.151 215.951 167.735 215.696C166.708 215.062 165.525 214.718 164.303 214.718H41.4422C40.6105 214.718 40.1904 215.722 40.7717 216.317L49.3811 225.095L51.5154 227.273L98.4913 275.184L192.439 371.012C193.949 372.551 193.211 375.001 191.382 375.647C191.09 375.749 190.776 375.809 190.432 375.809H5.18444C3.61872 375.809 2.23969 376.579 1.38682 377.761C1.09404 378.17 0.856425 378.62 0.707914 379.114C0.66124 379.263 0.623051 379.411 0.593349 379.565C0.529702 379.871 0.5 380.185 0.5 380.513V448.265V454.934C0.5 455.096 0.508486 455.257 0.525459 455.415C0.631538 456.444 1.06858 457.375 1.73051 458.098C1.83235 458.209 1.93843 458.315 2.04875 458.417C2.5155 458.843 3.07135 459.174 3.67812 459.383C4.15335 459.544 4.65829 459.638 5.18868 459.638H252.153C269.775 459.638 286.964 452.884 299.103 440.074C313.067 425.337 317.188 409.353 317.315 395.854L317.311 395.824Z" fill="#495870"/>
<path d="M1272.16 31.6291V42.2131H1267V12.3511H1282.79C1293.08 12.3511 1297.28 15.1651 1297.28 21.5071C1297.28 26.1271 1295.01 28.4791 1290.26 29.4871C1294.88 30.4531 1296.73 32.9311 1296.73 38.4331V40.3231C1296.73 41.1211 1296.9 41.8771 1297.45 42.2131H1291.94C1291.4 41.9191 1291.27 41.0791 1291.27 40.2811V38.4331C1291.27 36.6691 1291.02 35.3251 1290.52 34.3591C1289.47 32.3431 1287.11 31.6291 1282.79 31.6291H1272.16ZM1282.54 27.1771C1284.38 27.1771 1286.06 27.0511 1287.45 26.8411C1290.26 26.3371 1291.94 24.9931 1291.94 22.1371V21.8011C1291.94 17.8111 1289.09 16.8031 1282.75 16.8031H1272.16V27.1771H1282.54Z" fill="#495870"/>
<path d="M1244.52 42.2131H1215.54V12.3511H1243.68V16.7611H1220.54V25.2451H1240.11V29.6131H1220.54V37.6351H1244.52V42.2131Z" fill="#495870"/>
<path d="M1185.6 29.7811H1165.15V42.2131H1159.94V12.3511H1165.15V24.8251H1185.6V12.3511H1190.72V42.2131H1185.6V29.7811Z" fill="#495870"/>
<path d="M1125.43 16.8451V42.2131H1120.14V16.8451H1108.54V12.3511H1137.57V16.8451H1125.43Z" fill="#495870"/>
<path d="M1088.05 42.2131H1059.07V12.3511H1087.21V16.7611H1064.07V25.2451H1083.64V29.6131H1064.07V37.6351H1088.05V42.2131Z" fill="#495870"/>
<path d="M1030.48 34.065C1030.15 35.829 1029.39 37.341 1028.34 38.685C1026.16 41.373 1022.38 43.011 1016.58 43.011C1013.22 43.011 1010.28 42.423 1007.76 41.373C1002.76 39.105 999.822 34.695 999.822 27.723V27.555C999.822 24.195 1000.54 21.297 1002.13 18.945C1005.24 14.199 1010.78 11.679 1017.76 11.679C1020.86 11.679 1023.55 12.099 1025.99 12.813C1030.82 14.325 1033.97 17.517 1034.98 22.767H1029.1C1028.05 18.273 1024.31 16.383 1017.88 16.383C1009.99 16.383 1005.2 19.911 1005.2 27.639V27.681C1005.2 34.947 1009.52 38.517 1017.46 38.517C1020.28 38.517 1022.59 38.181 1024.39 37.509C1028 36.165 1029.77 33.855 1030.1 31.167H1017V26.841H1035.1V42.213H1030.78L1030.48 34.065Z" fill="#495870"/>
<path d="M959.77 43.011C956.326 43.011 953.302 42.423 950.614 41.373C945.28 39.105 942.088 34.695 942.088 27.597V27.471C942.088 24.111 942.802 21.255 944.398 18.903C947.506 14.157 952.966 11.679 959.77 11.679C963.13 11.679 966.154 12.309 968.842 13.485C974.26 15.921 977.578 20.583 977.578 27.429V27.639C977.578 31.125 976.822 33.939 975.226 36.249C972.118 40.827 966.574 43.011 959.77 43.011ZM959.728 38.307C962.206 38.307 964.39 37.929 966.238 37.215C970.018 35.787 972.244 32.721 972.244 27.597C972.244 24.951 971.74 22.851 970.69 21.213C968.59 17.895 964.852 16.383 959.77 16.383C952.168 16.383 947.422 19.827 947.422 27.555V27.597C947.422 30.033 947.926 32.007 948.976 33.603C951.076 36.795 954.814 38.307 959.728 38.307Z" fill="#495870"/>
<path d="M911.475 16.8451V42.2131H906.183V16.8451H894.591V12.3511H923.613V16.8451H911.475Z" fill="#495870"/>
<path d="M816.952 18.8188V42.2128H811.912V12.3508H817.204L837.07 33.9388L838.246 35.4088V12.3508H843.244V42.2128H838.33L818.086 20.2048L816.952 18.8188Z" fill="#495870"/>
<path d="M770.958 43.011C767.514 43.011 764.49 42.423 761.802 41.373C756.468 39.105 753.276 34.695 753.276 27.597V27.471C753.276 24.111 753.99 21.255 755.586 18.903C758.694 14.157 764.154 11.679 770.958 11.679C774.318 11.679 777.342 12.309 780.03 13.485C785.448 15.921 788.766 20.583 788.766 27.429V27.639C788.766 31.125 788.01 33.939 786.414 36.249C783.306 40.827 777.762 43.011 770.958 43.011ZM770.916 38.307C773.394 38.307 775.578 37.929 777.426 37.215C781.206 35.787 783.432 32.721 783.432 27.597C783.432 24.951 782.928 22.851 781.878 21.213C779.778 17.895 776.04 16.383 770.958 16.383C763.356 16.383 758.61 19.827 758.61 27.555V27.597C758.61 30.033 759.114 32.007 760.164 33.603C762.264 36.795 766.002 38.307 770.916 38.307Z" fill="#495870"/>
<path d="M712.196 42.2131V37.3831H720.26V17.0131H712.196V12.3511H733.28V17.0131H725.216V37.3831H733.28V42.2131H712.196Z" fill="#495870"/>
<path d="M675.932 43.053C671.984 43.053 668.834 42.675 666.356 41.835C661.4 40.197 658.964 36.921 658.124 31.671H663.71C664.676 36.837 668.582 38.517 676.058 38.517C682.904 38.517 685.802 36.921 685.802 33.813C685.802 32.595 685.424 31.713 684.626 31.083C683.03 29.949 679.586 29.613 673.328 29.277C670.22 29.067 667.742 28.689 665.642 28.143C661.61 27.093 659.594 24.867 659.594 20.835C659.594 15.249 664.382 11.679 674.042 11.679C684.164 11.679 689.666 14.913 690.884 21.843H685.382C684.668 17.559 680.594 16.089 673.958 16.089C667.448 16.089 664.802 17.727 664.802 20.709C664.802 21.675 665.096 22.431 665.726 22.977C666.902 24.111 669.842 24.573 675.638 24.909C679.166 25.077 682.064 25.497 684.332 26.043C688.91 27.177 691.01 29.319 691.01 33.435C691.01 39.525 686.348 43.053 675.932 43.053Z" fill="#495870"/>
<path d="M622.176 43.053C618.228 43.053 615.078 42.675 612.6 41.835C607.644 40.197 605.208 36.921 604.368 31.671H609.954C610.92 36.837 614.826 38.517 622.302 38.517C629.148 38.517 632.046 36.921 632.046 33.813C632.046 32.595 631.668 31.713 630.87 31.083C629.274 29.949 625.83 29.613 619.572 29.277C616.464 29.067 613.986 28.689 611.886 28.143C607.854 27.093 605.838 24.867 605.838 20.835C605.838 15.249 610.626 11.679 620.286 11.679C630.408 11.679 635.91 14.913 637.128 21.843H631.626C630.912 17.559 626.838 16.089 620.202 16.089C613.692 16.089 611.046 17.727 611.046 20.709C611.046 21.675 611.34 22.431 611.97 22.977C613.146 24.111 616.086 24.573 621.882 24.909C625.41 25.077 628.308 25.497 630.576 26.043C635.154 27.177 637.254 29.319 637.254 33.435C637.254 39.525 632.592 43.053 622.176 43.053Z" fill="#495870"/>
<path d="M576.545 34.7371H558.653L554.915 42.2131H549.287L564.785 12.3511H570.203L585.953 42.2131H580.409L576.545 34.7371ZM567.473 17.0971L560.795 30.4531H574.361L567.473 17.0971Z" fill="#495870"/>
<path d="M508.902 32.8051V42.2131H503.778V12.3511H518.814C529.566 12.3511 533.85 15.5851 533.85 22.6831C533.85 29.3611 529.062 32.8471 519.402 32.8051H508.902ZM508.902 16.7611V28.3951H519.15C525.786 28.3951 528.642 26.9251 528.642 22.6411C528.642 21.0451 528.264 19.8691 527.592 19.0291C526.206 17.3491 523.308 16.7611 518.814 16.7611H508.902Z" fill="#495870"/>
<path d="M426.002 31.6291V42.2131H420.836V12.3511H436.628C446.918 12.3511 451.118 15.1651 451.118 21.5071C451.118 26.1271 448.85 28.4791 444.104 29.4871C448.724 30.4531 450.572 32.9311 450.572 38.4331V40.3231C450.572 41.1211 450.74 41.8771 451.286 42.2131H445.784C445.238 41.9191 445.112 41.0791 445.112 40.2811V38.4331C445.112 36.6691 444.86 35.3251 444.356 34.3591C443.306 32.3431 440.954 31.6291 436.628 31.6291H426.002ZM436.376 27.1771C438.224 27.1771 439.904 27.0511 441.29 26.8411C444.104 26.3371 445.784 24.9931 445.784 22.1371V21.8011C445.784 17.8111 442.928 16.8031 436.586 16.8031H426.002V27.1771H436.376Z" fill="#495870"/>
<path d="M380.93 43.0531C370.304 43.0531 365.18 38.0971 365.18 26.1691V12.3511H370.598V26.0431C370.598 34.6531 373.832 38.0551 380.972 38.0551C388.028 38.0551 391.178 34.7791 391.178 26.0011V12.3511H396.596V26.1271C396.596 30.1171 395.966 33.3511 394.79 35.8711C392.312 40.8691 387.692 43.0531 380.93 43.0531Z" fill="#495870"/>
<path d="M324.692 43.011C321.248 43.011 318.224 42.423 315.536 41.373C310.202 39.105 307.01 34.695 307.01 27.597V27.471C307.01 24.111 307.724 21.255 309.32 18.903C312.428 14.157 317.888 11.679 324.692 11.679C328.052 11.679 331.076 12.309 333.764 13.485C339.182 15.921 342.5 20.583 342.5 27.429V27.639C342.5 31.125 341.744 33.939 340.148 36.249C337.04 40.827 331.496 43.011 324.692 43.011ZM324.65 38.307C327.128 38.307 329.312 37.929 331.16 37.215C334.94 35.787 337.166 32.721 337.166 27.597C337.166 24.951 336.662 22.851 335.612 21.213C333.512 17.895 329.774 16.383 324.692 16.383C317.09 16.383 312.344 19.827 312.344 27.555V27.597C312.344 30.033 312.848 32.007 313.898 33.603C315.998 36.795 319.736 38.307 324.65 38.307Z" fill="#495870"/>
<path d="M245.282 16.8451V42.2131H239.99V16.8451H228.398V12.3511H257.42V16.8451H245.282Z" fill="#495870"/>
<path d="M190.519 43.0531C179.893 43.0531 174.769 38.0971 174.769 26.1691V12.3511H180.187V26.0431C180.187 34.6531 183.421 38.0551 190.561 38.0551C197.617 38.0551 200.767 34.7791 200.767 26.0011V12.3511H206.185V26.1271C206.185 30.1171 205.555 33.3511 204.379 35.8711C201.901 40.8691 197.281 43.0531 190.519 43.0531Z" fill="#495870"/>
<path d="M134.282 43.011C130.838 43.011 127.814 42.423 125.126 41.373C119.792 39.105 116.6 34.695 116.6 27.597V27.471C116.6 24.111 117.314 21.255 118.91 18.903C122.018 14.157 127.478 11.679 134.282 11.679C137.642 11.679 140.666 12.309 143.354 13.485C148.772 15.921 152.09 20.583 152.09 27.429V27.639C152.09 31.125 151.334 33.939 149.738 36.249C146.63 40.827 141.086 43.011 134.282 43.011ZM134.24 38.307C136.718 38.307 138.902 37.929 140.75 37.215C144.53 35.787 146.756 32.721 146.756 27.597C146.756 24.951 146.252 22.851 145.202 21.213C143.102 17.895 139.364 16.383 134.282 16.383C126.68 16.383 121.934 19.827 121.934 27.555V27.597C121.934 30.033 122.438 32.007 123.488 33.603C125.588 36.795 129.326 38.307 134.24 38.307Z" fill="#495870"/>
<path d="M88.3417 29.7811H67.8877V42.2131H62.6797V12.3511H67.8877V24.8251H88.3417V12.3511H93.4657V42.2131H88.3417V29.7811Z" fill="#495870"/>
<path d="M24.8578 43.053C20.9098 43.053 17.7598 42.675 15.2818 41.835C10.3258 40.197 7.8898 36.921 7.0498 31.671H12.6358C13.6018 36.837 17.5078 38.517 24.9838 38.517C31.8298 38.517 34.7278 36.921 34.7278 33.813C34.7278 32.595 34.3498 31.713 33.5518 31.083C31.9558 29.949 28.5118 29.613 22.2538 29.277C19.1458 29.067 16.6678 28.689 14.5678 28.143C10.5358 27.093 8.5198 24.867 8.5198 20.835C8.5198 15.249 13.3078 11.679 22.9678 11.679C33.0898 11.679 38.5918 14.913 39.8098 21.843H34.3078C33.5938 17.559 29.5198 16.089 22.8838 16.089C16.3738 16.089 13.7278 17.727 13.7278 20.709C13.7278 21.675 14.0218 22.431 14.6518 22.977C15.8278 24.111 18.7678 24.573 24.5638 24.909C28.0918 25.077 30.9898 25.497 33.2578 26.043C37.8358 27.177 39.9358 29.319 39.9358 33.435C39.9358 39.525 35.2738 43.053 24.8578 43.053Z" fill="#495870"/>
</svg>
