<svg width="45" height="45" viewBox="0 0 45 45" fill="none" xmlns="http://www.w3.org/2000/svg">
<rect width="45" height="45" fill="#111412"/>
<path fill-rule="evenodd" clip-rule="evenodd" d="M21.6236 18.4223C21.8672 18.5993 22.0308 18.8701 22.0583 19.1919L22.0585 19.1922L22.059 19.2006L22.0592 19.2131V19.9748L22.059 21.9937L22.0586 25.6057C22.0658 26.2844 21.5031 26.7973 20.8615 26.7889H16.0882C15.719 26.7938 15.3758 26.6259 15.1525 26.3531C15.1475 26.3471 15.1427 26.341 15.1379 26.3349L15.1273 26.3213C15.102 26.2881 15.0784 26.2534 15.0567 26.2173L15.0503 26.2067L15.0447 26.197L15.0349 26.1797L15.0289 26.1688C15.0245 26.1606 15.0203 26.1525 15.0161 26.1443C14.9989 26.1106 14.9835 26.076 14.9696 26.0403C14.9615 26.0195 14.9539 25.9983 14.947 25.9768L14.9414 25.959C14.9373 25.9455 14.9334 25.9319 14.9297 25.9181L14.9258 25.9031C14.9222 25.8882 14.9187 25.8732 14.9155 25.858L14.9131 25.846C14.8979 25.7687 14.8903 25.6884 14.8911 25.6055V20.72H16.837C16.8651 20.72 16.8909 20.7299 16.911 20.7466L16.9165 20.7515L16.9192 20.754C16.9288 20.7637 16.9367 20.7752 16.9425 20.7878C16.9494 20.8026 16.9532 20.8191 16.9532 20.8365V24.6428C16.9532 24.6493 16.9542 24.6555 16.9559 24.6614L16.9572 24.6659C16.9607 24.6758 16.9663 24.6847 16.9736 24.6921C16.9778 24.6962 16.9825 24.6998 16.9876 24.7029L16.9896 24.7041C16.9952 24.7072 17.0012 24.7094 17.0075 24.7109C17.0125 24.712 17.0176 24.7126 17.0229 24.7126H19.9265C19.9366 24.7126 19.9461 24.7104 19.9547 24.7066C19.9626 24.7031 19.9698 24.6982 19.9759 24.6921C19.9885 24.6794 19.9963 24.662 19.9963 24.6427V20.3741C19.9963 20.3513 19.9854 20.3312 19.9686 20.3185C19.9658 20.3163 19.9629 20.3144 19.9598 20.3127L19.9592 20.3124C19.9574 20.3114 19.9556 20.3105 19.9537 20.3097C19.9502 20.3083 19.9467 20.3071 19.943 20.3062C19.9377 20.3049 19.9322 20.3042 19.9265 20.3042H14.8963V19.2128V19.2119C14.8964 19.2053 14.8966 19.1985 14.8971 19.1919C14.9194 18.9304 15.0316 18.7026 15.2036 18.5314L15.2041 18.5309C15.2115 18.5235 15.2189 18.5163 15.2265 18.5092L15.2386 18.4981C15.2514 18.4864 15.2646 18.475 15.278 18.4639C15.2873 18.4562 15.2968 18.4487 15.3063 18.4413C15.5035 18.2893 15.7569 18.2008 16.0349 18.2H20.9205C21.133 18.2006 21.331 18.2526 21.5007 18.3448C21.524 18.3575 21.547 18.3709 21.5691 18.3852L21.576 18.3895C21.5857 18.3957 21.5952 18.4023 21.6047 18.4088L21.6236 18.4223ZM30.0824 19.1634V21.029L30.0825 23.0064C30.0874 23.2787 29.947 23.5466 29.7362 23.7495C29.7158 23.7692 29.6948 23.7881 29.6731 23.8065C29.6587 23.8187 29.644 23.8307 29.6291 23.8423C29.6212 23.8484 29.6133 23.8545 29.6054 23.8604L29.5835 23.8763C29.3911 24.0135 29.1639 24.0994 28.9413 24.1022C28.9323 24.1024 28.9234 24.1024 28.9146 24.1022L28.9141 24.1023H25.2564V26.3076V26.6377V26.6733C25.2564 26.6815 25.2556 26.6892 25.2541 26.6968L25.253 26.7017C25.2523 26.7046 25.2515 26.7074 25.2506 26.7101C25.2496 26.713 25.2486 26.7159 25.2474 26.7187C25.2361 26.7453 25.2152 26.7668 25.1891 26.779C25.1743 26.7858 25.1578 26.7898 25.1403 26.7898H23.1032C23.0975 26.7898 23.0918 26.7894 23.0863 26.7886C23.0818 26.7879 23.0774 26.787 23.0731 26.7858C23.0666 26.7841 23.0604 26.7818 23.0544 26.779C23.0283 26.7668 23.0074 26.7453 22.9962 26.7187C22.9932 26.7117 22.9909 26.7044 22.9894 26.6968C22.9887 26.6929 22.9881 26.6888 22.9877 26.6848C22.9873 26.681 22.9871 26.6772 22.9871 26.6733V26.6377V26.3789V20.7193H25.1404C25.1872 20.7193 25.2275 20.7471 25.2459 20.7872C25.2527 20.8021 25.2566 20.8185 25.2566 20.8359V21.1197V21.8492V21.9725C25.2566 22.011 25.2879 22.0424 25.3264 22.0424H27.6536C27.6921 22.0424 27.7233 22.011 27.7233 21.9725V21.795V20.6332V20.3734C27.7233 20.371 27.7232 20.3686 27.723 20.3663C27.7226 20.3616 27.7216 20.3571 27.7203 20.3527C27.7157 20.3377 27.7061 20.3249 27.6935 20.3161L27.6913 20.3146C27.6865 20.3117 27.6815 20.3091 27.6761 20.3073C27.669 20.3049 27.6615 20.3036 27.6536 20.3036H22.987V20.1142V20.0195V18.485V18.3919V18.319C22.987 18.3109 22.9879 18.3031 22.9893 18.2955C22.9898 18.293 22.9904 18.2904 22.9911 18.288C22.9924 18.2831 22.9941 18.2783 22.9961 18.2737C23.0136 18.2318 23.055 18.2025 23.1031 18.2025H28.8359C29.3195 18.2025 29.6154 18.3492 29.7966 18.5279C30.0792 18.8066 30.0824 19.1634 30.0824 19.1634ZM30.7954 18.2025H35.1765L35.1763 26.6732C35.1763 26.7375 35.1242 26.7897 35.0601 26.7897H33.023C33.0055 26.7897 32.9891 26.7858 32.9742 26.7788C32.9481 26.7667 32.9272 26.7452 32.9159 26.7185C32.913 26.7116 32.9107 26.7043 32.9092 26.6967C32.9088 26.6948 32.9085 26.6928 32.9082 26.6908C32.9079 26.6887 32.9077 26.6866 32.9074 26.6845C32.9071 26.6808 32.9069 26.677 32.9069 26.6732V26.6086V26.3762V20.3736C32.9069 20.3711 32.9068 20.3687 32.9066 20.3664L32.9059 20.3611C32.9054 20.3582 32.9047 20.3555 32.9038 20.3528C32.8976 20.3322 32.8819 20.3159 32.8621 20.3083C32.8543 20.3054 32.846 20.3036 32.8373 20.3036H30.7954C30.7313 20.3036 30.6792 20.2515 30.6792 20.1872V18.3191C30.6792 18.2749 30.7037 18.2364 30.74 18.2167L30.7405 18.2165C30.743 18.215 30.7456 18.2138 30.7483 18.2126C30.7508 18.2115 30.7533 18.2105 30.7559 18.2096C30.7588 18.2085 30.7618 18.2076 30.7649 18.2067C30.7705 18.2052 30.7764 18.204 30.7823 18.2033C30.7866 18.2028 30.791 18.2025 30.7954 18.2025ZM35.5909 18.2025H38.625C38.6813 18.2025 38.7143 18.2658 38.6825 18.3122L38.6675 18.3339L37.4045 20.1689C37.3319 20.2709 37.2691 20.3036 37.1399 20.3036H35.5909V18.2025ZM14.1502 20.1334L12.7396 18.2488C12.7178 18.2197 12.6836 18.2025 12.6473 18.2025H8.16891C7.51971 18.2072 7.08589 18.6007 7.08589 19.1635V20.3036H14.138C14.1954 20.3036 14.2282 20.2379 14.1937 20.1918L14.1502 20.1334ZM14.2022 25.1692C14.2021 25.1582 14.2018 25.1473 14.2015 25.1365C14.2009 25.1193 14.2001 25.1022 14.1991 25.0854C14.1979 25.0667 14.1965 25.0482 14.1948 25.0301C14.1932 25.0121 14.1912 24.9943 14.1888 24.9765L14.1875 24.9656L14.1853 24.9494C14.1836 24.938 14.1818 24.9267 14.1799 24.9153L14.1777 24.9028C14.1751 24.8876 14.1722 24.8726 14.1692 24.8575L14.1669 24.8463C14.1638 24.8315 14.1604 24.8169 14.157 24.8024L14.1531 24.7861C14.1509 24.7774 14.1487 24.7687 14.1464 24.76L14.1425 24.7455L14.1413 24.7416L14.1355 24.7218C14.1337 24.7156 14.1319 24.7094 14.13 24.7032L14.126 24.6904L14.1196 24.6705C14.1147 24.6552 14.1094 24.64 14.1041 24.6249L14.098 24.6085C14.0955 24.6018 14.093 24.5952 14.0905 24.5886L14.0853 24.5753L14.0777 24.5564L14.072 24.5426L14.0616 24.5184L14.0551 24.5035L14.0462 24.4842L14.0362 24.4629L14.0281 24.4463C14.0243 24.4385 14.0204 24.4307 14.0164 24.423L14.0104 24.4113L14.004 24.3988C13.996 24.3838 13.9878 24.3688 13.9793 24.3539L13.9717 24.3408C13.9648 24.329 13.958 24.3174 13.951 24.3058L13.9433 24.2933L13.9335 24.2777C13.9274 24.2681 13.9213 24.2586 13.915 24.2491L13.9093 24.2407L13.8987 24.2252L13.8841 24.204L13.8755 24.192C13.8682 24.1817 13.8607 24.1716 13.8532 24.1615L13.8437 24.1489L13.8345 24.1369L13.8217 24.1206L13.8101 24.106L13.7885 24.0787C13.7792 24.0671 13.7698 24.0556 13.7605 24.0442C13.7497 24.0311 13.7389 24.0181 13.7281 24.0052C13.7109 23.9846 13.6935 23.9643 13.6759 23.9441C13.6607 23.9265 13.6453 23.9091 13.63 23.8918L13.6086 23.868L13.5777 23.8339C13.553 23.8069 13.5282 23.7801 13.5032 23.7534C13.4862 23.7354 13.4691 23.7173 13.452 23.6994C13.4183 23.664 13.3841 23.6288 13.3498 23.5936L13.2961 23.5385L13.1905 23.4308C13.1375 23.3766 13.0843 23.3218 13.031 23.2657C12.863 23.0892 12.6147 22.8372 12.338 22.5598C12.2612 22.4828 12.1823 22.4039 12.1021 22.3241L12.1016 22.3235L12.0056 22.2279L11.9562 22.1789L11.8597 22.083C11.2747 21.5021 10.6909 20.9303 10.5237 20.7666C10.5188 20.7618 10.5137 20.7574 10.5083 20.7534C10.504 20.7502 10.4996 20.7472 10.4951 20.7444C10.4696 20.7287 10.4403 20.7202 10.41 20.7202H7.36485C7.34425 20.7202 7.33383 20.7451 7.34824 20.7598L7.56162 20.9774L7.61452 21.0314L8.77883 22.2189L11.1073 24.594C11.1448 24.6321 11.1265 24.6928 11.0812 24.7089C11.0739 24.7114 11.0661 24.7129 11.0576 24.7129H6.4662C6.44809 24.7129 6.43098 24.717 6.41574 24.7244C6.39833 24.7329 6.38335 24.7456 6.37208 24.7612C6.36482 24.7714 6.35893 24.7825 6.35525 24.7948C6.3541 24.7985 6.35315 24.8022 6.35241 24.8059L6.3513 24.8123C6.35049 24.8178 6.3501 24.8235 6.3501 24.8294V26.5087V26.674C6.3501 26.678 6.35031 26.682 6.35073 26.6859C6.35336 26.7114 6.36419 26.7345 6.38059 26.7524C6.38312 26.7552 6.38575 26.7578 6.38848 26.7603C6.3956 26.7668 6.40355 26.7724 6.41212 26.7769C6.41748 26.7798 6.42308 26.7823 6.42887 26.7842C6.44064 26.7883 6.45316 26.7906 6.46631 26.7906H12.5874C13.0241 26.7906 13.4501 26.6232 13.751 26.3057C14.0971 25.9404 14.1993 25.5443 14.2024 25.2097L14.2023 25.2089C14.2024 25.1956 14.2024 25.1823 14.2022 25.1692Z" fill="url(#paint0_linear_558_38)"/>
<defs>
<linearGradient id="paint0_linear_558_38" x1="38.6949" y1="18.2" x2="27.8814" y2="29.6806" gradientUnits="userSpaceOnUse">
<stop stop-color="#E4FF98"/>
<stop offset="1" stop-color="#B4E000"/>
</linearGradient>
</defs>
</svg>
